P1
# E2.pbm
5 5
1 1 1 1 1
1 0 0 0 1
1 1 1 1 1
1 0 0 0 1
1 1 1 1 1