P1
# C.pbm
5 5
1 0 0 0 1
1 1 0 1 1
1 1 1 1 1
1 1 0 1 1
1 0 0 0 1